<?xml version="1.0" standalone="no"?>
<!DOCTYPE svg PUBLIC "-//W3C//DTD SVG 20010904//EN"
 "http://www.w3.org/TR/2001/REC-SVG-20010904/DTD/svg10.dtd">
<svg version="1.0" xmlns="http://www.w3.org/2000/svg"
 width="16.000000pt" height="16.000000pt" viewBox="0 0 16.000000 16.000000"
 preserveAspectRatio="xMidYMid meet">
<metadata>
Created by potrace 1.11, written by Peter Selinger 2001-2013
</metadata>
<g transform="translate(0.000000,16.000000) scale(0.002286,-0.002286)"
fill="#000000" stroke="none">
<path d="M1173 6356 c-353 -68 -589 -298 -634 -620 -22 -159 12 -288 127 -477
18 -31 34 -62 34 -68 0 -7 -41 -11 -130 -11 l-130 0 0 -90 0 -90 183 0 184 0
27 -56 c43 -87 60 -184 47 -271 -23 -156 -90 -264 -278 -450 l-133 -133 77
-105 c42 -58 80 -105 85 -105 4 0 36 15 70 34 122 66 239 91 367 76 42 -5 146
-31 231 -58 201 -65 218 -69 327 -82 111 -14 213 -2 305 35 66 26 195 115 204
140 6 14 -121 225 -135 225 -4 0 -11 -4 -16 -9 -26 -25 -140 -72 -202 -82 -79
-13 -148 -2 -337 52 -58 16 -140 34 -181 38 -143 16 -307 -18 -428 -89 -20
-12 -37 -20 -37 -17 0 3 40 48 88 101 222 239 290 372 279 545 -3 47 -15 114
-25 149 l-20 62 229 0 229 0 0 90 0 90 -267 0 -268 1 -42 72 c-125 216 -155
298 -155 422 0 142 55 260 154 332 95 70 180 96 318 96 193 0 320 -71 389
-217 33 -70 61 -184 61 -250 l0 -46 150 0 150 0 0 30 c0 75 -24 230 -46 300
-66 210 -247 367 -486 425 -91 22 -278 28 -365 11z"/>
<path d="M5315 3074 c-160 -33 -217 -55 -316 -120 -194 -128 -359 -405 -419
-699 l-16 -80 -108 -5 -108 -5 -34 -90 c-19 -49 -34 -93 -34 -97 0 -5 59 -8
130 -8 l131 0 -3 -107 -3 -108 -94 -5 -93 -5 -34 -90 c-19 -49 -34 -93 -34
-97 0 -5 62 -8 138 -8 l138 0 22 -98 c33 -146 67 -244 127 -367 94 -194 190
-296 350 -374 102 -49 167 -68 288 -81 180 -20 362 13 545 100 l102 49 0 155
c0 86 -3 156 -6 156 -3 0 -38 -19 -77 -42 -105 -61 -245 -124 -316 -143 -83
-21 -224 -21 -298 0 -200 58 -342 255 -417 582 l-14 63 360 2 360 3 38 95 38
95 -412 5 -411 5 -3 75 c-2 41 0 90 3 107 l6 33 452 2 452 3 37 90 c20 50 37
93 37 98 1 4 -213 7 -475 7 l-476 0 7 33 c48 219 148 426 251 517 54 47 152
90 231 101 163 23 342 -32 532 -165 42 -29 81 -56 87 -59 8 -5 30 38 63 121
28 70 51 130 51 135 0 10 -120 87 -196 125 -77 39 -200 78 -284 92 -62 9 -254
12 -295 4z"/>
</g>
</svg>
